inDegrees=no
num_controls=7
num_derivatives=13
num_iterations=84
num_multipliers=7
num_parameters=0
num_slacks=7
num_states=26
objective=0.455707
objective_accelerations=0.048328
objective_balance=0.000976
objective_effort=0.038207
objective_height=0.362298
objective_ligament=0.005898
solver_duration=1015.879015
status=Solve_Succeeded
success=true
DataType=double
version=3
OpenSimVersion=4.5
endheader
time	/jointset/ground_pelvis/pelvis_tilt/value	/jointset/ground_pelvis/pelvis_tx/value	/jointset/ground_pelvis/pelvis_ty/value	/jointset/hip_r/hip_flexion_r/value	/jointset/hip_r/hip_adduction_r/value	/jointset/hip_r/hip_rotation_r/value	/jointset/back/lumbar_extension/value	/jointset/patellofemoral_r/patellar_flexion_r/value	/jointset/knee_r/knee_flexion_r/value	/jointset/knee_r/knee_adduction_r/value	/jointset/knee_r/knee_rotation_r/value	/jointset/ankle_r/ankle_angle_r/value	/jointset/subtalar_r/subtalar_angle_r/value	/jointset/ground_pelvis/pelvis_tilt/speed	/jointset/ground_pelvis/pelvis_tx/speed	/jointset/ground_pelvis/pelvis_ty/speed	/jointset/hip_r/hip_flexion_r/speed	/jointset/hip_r/hip_adduction_r/speed	/jointset/hip_r/hip_rotation_r/speed	/jointset/back/lumbar_extension/speed	/jointset/patellofemoral_r/patellar_flexion_r/speed	/jointset/knee_r/knee_flexion_r/speed	/jointset/knee_r/knee_adduction_r/speed	/jointset/knee_r/knee_rotation_r/speed	/jointset/ankle_r/ankle_angle_r/speed	/jointset/subtalar_r/subtalar_angle_r/speed	/forceset/tau_hip_flexion_r	/forceset/tau_hip_adduction_r	/forceset/tau_hip_rotation_r	/forceset/tau_knee_flexion_r	/forceset/tau_ankle_angle_r	/forceset/tau_subtalar_angle_r	/forceset/tau_lumbar_extension	lambda_cid13_p0	lambda_cid14_p0	lambda_cid14_p1	lambda_cid14_p2	lambda_cid14_p3	lambda_cid14_p4	lambda_cid14_p5	/jointset/ground_pelvis/pelvis_tilt/accel	/jointset/ground_pelvis/pelvis_tx/accel	/jointset/ground_pelvis/pelvis_ty/accel	/jointset/hip_r/hip_flexion_r/accel	/jointset/hip_r/hip_adduction_r/accel	/jointset/hip_r/hip_rotation_r/accel	/jointset/back/lumbar_extension/accel	/jointset/patellofemoral_r/patellar_flexion_r/accel	/jointset/knee_r/knee_flexion_r/accel	/jointset/knee_r/knee_adduction_r/accel	/jointset/knee_r/knee_rotation_r/accel	/jointset/ankle_r/ankle_angle_r/accel	/jointset/subtalar_r/subtalar_angle_r/accel	gamma_cid13_p0	gamma_cid14_p0	gamma_cid14_p1	gamma_cid14_p2	gamma_cid14_p3	gamma_cid14_p4	gamma_cid14_p5
0	-0.01288821589100556	0.1348009242928941	0.9322792889935638	0.1934211968871041	-0.2401599244050464	-0.2342253028076955	-0.2903787966825928	0.2311786273364038	0.2311786273363406	0.1590690820252174	0.1733313941690053	0.089344008118978	0.04893425674611386	0	0	0	0	0	0	0	0	0	0	0	0	0	0.08181086872384825	-0.08087092481601285	0.01116617174833769	-0.2071049489895501	0.05910067599894683	-0.08458827624750587	-0.009466466713279208	-30.02299505626335	-27.00710587346716	-34.83263906859207	-1.601041555505126	13.66403985012325	-613.3468092387581	53.83723211963523	-1.56277578327696	-1.906773034132736	-0.7628797906683323	9.645236762718858	0.4095446945224647	2.085490040544983	-5.931743727801299	9.917807696957436	9.917807696956332	-3.408573011311137	0.4257850351377812	2.707934651738553	1.229365031867637	9.737540106610549e-09	1.515374928025301e-08	-3.453280110786676e-08	2.450296820114831e-07	-1.030225244286957e-08	2.035291093642913e-07	-1.952624023115098e-07
0.01	-0.0129601868782725	0.1347073072852019	0.9322423406214601	0.1938908601435879	-0.2401364279007245	-0.2341175921542158	-0.2906771326113817	0.2316659611585535	0.2316659611586059	0.1588947750818639	0.1733451463037832	0.08947902613637942	0.04899929790601901	-0.01427054007871395	-0.0185703457924478	-0.007365144046909415	0.09339202056314752	0.004713245227060417	0.02177103628848901	-0.05931392640961693	0.09703526609569071	0.09703526609568734	-0.03474541792874048	0.002380194450807157	0.02700560699564694	0.0130248753085661	0.07959245147279959	-0.09970369102918525	0.01144969292528622	-0.2076333967595884	0.05745385414955844	-0.06891207169367085	-0.0069240785469716	-30.02758510258453	-26.77419832424674	-27.73627457368912	-3.014997496286691	11.78387589457155	-614.7710547720071	68.79887756933203	-1.340649269813688	-1.809209054956135	-0.7196114495111382	9.105088718213324	0.5043386153153983	2.257287136372232	-5.878228191830608	9.531659367849368	9.531659367849999	-3.490113013429624	0.0886448362029963	2.697168830538317	1.341569110421695	8.479411429920192e-08	4.611178436317985e-08	-5.005215447239137e-07	4.678281060277218e-07	2.932713230038206e-08	1.336203620847626e-07	-5.423325263984889e-07
0.02	-0.01317115449634895	0.1344325780789503	0.9321324848613215	0.1952782244086627	-0.2400653741083658	-0.2337852957951373	-0.2915580100231449	0.233110702302142	0.2331107023021444	0.1583764965930496	0.1733716020201609	0.08988415924516381	0.04919509188502503	-0.02779932614277748	-0.03622243971186714	-0.01458147760693786	0.1835402017303765	0.009511457594870784	0.04491714111183472	-0.11650829659055	0.1914814642703386	0.1914814642703407	-0.06879430904840442	0.002540716347676903	0.05402301827367505	0.02615056381992518	0.07737403422155707	-0.1185364572425519	0.01173321410144475	-0.2081618445298477	0.05580703229996792	-0.05323586714011269	-0.00438169038062663	-30.04043665252409	-26.46179377143764	-20.64693917334798	-4.403901852610017	9.99495680302971	-614.8882130008265	83.41278722713407	-1.414424980344931	-1.723122659528687	-0.733117693292041	8.996468883535268	0.4265381226723416	2.360503747516396	-5.507832482063348	9.399994112749194	9.399994112749855	-3.269267649495625	-0.01814947564943761	2.710295508212996	1.249527672425528	1.598506884917933e-07	7.706981944610669e-08	-9.665102883399605e-07	6.906265300439605e-07	6.895651704363371e-08	6.371161480523387e-08	-8.89402650485468e-07
0.03	-0.01351520584297777	0.1339852904552224	0.9319507932386043	0.1975527439799756	-0.239947152390466	-0.2332204060304737	-0.2929997530830484	0.2354870749165653	0.2354870749165567	0.1575235167918937	0.1733945923606103	0.0905578923889146	0.04952079639830691	-0.04099709280177761	-0.05314390197553561	-0.02176628863456435	0.2709607499320304	0.01403672617000242	0.06777768759211962	-0.1714833895350156	0.2833499525239715	0.2833499525239893	-0.1014748848051919	0.002219418517445487	0.08056367813847454	0.03883781326473978	0.07425764749549861	-0.1144307726649147	0.01190344952984585	-0.2066216806808508	0.05482008528960404	-0.05421386760350007	-0.001538247250118293	-30.06047038393347	-26.82386243203089	-21.18604943183387	-4.259734667827436	9.688352459932318	-615.1659820549734	81.45172307365664	-1.270364486501874	-1.662966603914805	-0.7125666020792312	8.554413722194026	0.4510867052621898	2.206499895857001	-5.438808819107938	9.013777996460318	9.013777996462547	-3.218520411673017	-0.01467402971444227	2.60198330458814	1.255373293194417	1.425694466028447e-07	5.964707484008468e-08	-8.082335846097454e-07	7.280180268249718e-07	6.562848863028228e-08	4.427308532791085e-09	-8.67752536985462e-07
